<?xml version="1.0" encoding="utf-8"?>
<!-- Generator: Adobe Illustrator 21.1.0, SVG Export Plug-In . SVG Version: 6.00 Build 0)  -->
<svg version="1.1" id="Layer_1" xmlns="http://www.w3.org/2000/svg" xmlns:xlink="http://www.w3.org/1999/xlink" x="0px" y="0px"
	 viewBox="0 0 34.8 112.7" style="enable-background:new 0 0 34.8 112.7;" xml:space="preserve">
<title>Asset 9</title>
<g>
	<g>
		<path d="M6,11.4c0,6.3,5.1,11.4,11.4,11.4s11.4-5.1,11.4-11.4C28.8,5.1,23.7,0,17.4,0C12.8,0,8.6,2.8,6.8,7.1H0.8v2.4h5.4
			C6.1,10.1,6,10.7,6,11.4z M17.4,2.4c3.3,0,6.4,1.8,7.9,4.7H9.5C11,4.2,14.1,2.4,17.4,2.4L17.4,2.4z M8.6,9.5h17.6
			c1,4.9-2.1,9.6-7,10.6s-9.6-2.1-10.6-7C8.3,11.9,8.3,10.7,8.6,9.5L8.6,9.5z M4.7,27c-6.3,6.2-6.3,16.4,0,22.6c0,0,0,0,0,0L6.4,48
			C1,42.7,1,34,6.4,28.7L4.7,27z M30.1,27l-1.7,1.7c5.3,5.3,5.3,14,0,19.3l1.7,1.7C36.4,43.4,36.4,33.3,30.1,27
			C30.1,27,30.1,27,30.1,27z M25.2,25.5l-2-0.7c-3.2,3.2-8.4,3.2-11.6,0l-2,0.7l-3,22.7H6.5v42h21.9v-42h-0.1L25.2,25.5z M11.7,27.9
			c3.5,2.2,7.9,2.2,11.4,0l2.7,20.3H9L11.7,27.9z M26,87.8h-7.4V63h-2.4v24.8H8.8V50.5H26V87.8z"/>
	</g>
</g>
</svg>
