<svg xmlns="http://www.w3.org/2000/svg" viewBox="0 0 60.67 110.35"><defs><style>.cls-1{fill:#1b707c;}</style></defs><title>dark_blue_girl</title><g id="Layer_2" data-name="Layer 2"><g id="Graphics"><path class="cls-1" d="M8.74,21.7a8.85,8.85,0,0,0,5.56-1.95c2.2,8.53,11.18,13.73,20.06,11.61A16.25,16.25,0,0,0,46.44,19.75,9,9,0,0,0,58.73,18.5a8.2,8.2,0,0,0,1.94-5.17H57.16A5.12,5.12,0,0,1,52,18.42a5.19,5.19,0,0,1-5.18-4,1.94,1.94,0,0,0-.1-.76c-.1-.25,0-.24,0-.35h0c-1.48-8.67-10-14.55-19-13.13A16.25,16.25,0,0,0,14,13.34h0a4.78,4.78,0,0,1-.1.94h0a5.21,5.21,0,0,1-6,4.13,5.08,5.08,0,0,1-4.37-5.08H0A8.57,8.57,0,0,0,8.74,21.7Zm8.56-7a1.21,1.21,0,0,1,.07-.5A13,13,0,0,1,32.15,3.43,12.88,12.88,0,0,1,43.3,13.9,8.2,8.2,0,0,0,43.44,15v1a12.86,12.86,0,0,1-13.11,12.6,12.86,12.86,0,0,1-13.11-12.6h0a6.14,6.14,0,0,1,0-1.27ZM51.14,59.33a14.34,14.34,0,0,0,0-20.84h0l-2.43,2.34a11.1,11.1,0,0,1,.8,15.26L39.16,32.92a12.86,12.86,0,0,1-17.66,0L11.07,56.1a11.12,11.12,0,0,1,.83-15.27L9.47,38.48a14.36,14.36,0,0,0,0,20.86l.26-.25L0,80.62a44,44,0,0,0,60.53,0h0L51,59.14Zm5.32,20.44a40.51,40.51,0,0,1-52.3,0L23,38A16.6,16.6,0,0,0,37.7,38M22.65,110.35H26.1V95.17H22.65Zm10.54,0h3.45V95.17H33.19Z"/></g></g></svg>