<svg xmlns="http://www.w3.org/2000/svg" viewBox="0 0 138 138"><defs><style>.cls-1{fill:#5199a3;}</style></defs><title>diet</title><g id="Layer_2" data-name="Layer 2"><g id="Titles"><path class="cls-1" d="M69,0a69,69,0,1,0,69,69A69.08,69.08,0,0,0,69,0Zm0,134.17A65.17,65.17,0,1,1,134.17,69,65.24,65.24,0,0,1,69,134.17Z"/><path class="cls-1" d="M83.91,34.78A1.92,1.92,0,0,0,82,36.7V52.18h-6.1V36.7a1.92,1.92,0,1,0-3.83,0V52.18H65.95V36.7a1.92,1.92,0,0,0-3.83,0V54.09A1.92,1.92,0,0,0,64,56h8v47.77a1.92,1.92,0,1,0,3.83,0V56h8a1.92,1.92,0,0,0,1.92-1.92V36.7A1.92,1.92,0,0,0,83.91,34.78Z"/><path class="cls-1" d="M99.67,35A1.92,1.92,0,0,0,96.9,36.7v67.08a1.92,1.92,0,1,0,3.83,0V78.37h8a1.92,1.92,0,0,0,1.92-1.92V49.12C110.67,40.58,100.12,35.21,99.67,35Zm7.16,39.55h-6.1V40.14c2.61,1.86,6.1,5.09,6.1,9Z"/><path class="cls-1" d="M41.95,34.06c-7,0-11.58,9.88-11.58,16.41,0,6.16,3.89,10.62,9.66,11.43v41.89a1.92,1.92,0,1,0,3.83,0V61.9c5.77-.81,9.66-5.28,9.66-11.43C53.52,43.93,48.91,34.06,41.95,34.06Zm0,24.15c-4.71,0-7.75-3-7.75-7.74,0-5.37,3.83-12.57,7.75-12.57s7.74,7.2,7.74,12.57C49.69,55.17,46.65,58.21,41.95,58.21Z"/></g></g></svg>