<svg xmlns="http://www.w3.org/2000/svg" viewBox="0 0 139 68.09"><defs><style>.cls-1{fill:#5199a3;}</style></defs><title>Asset 7</title><g id="Layer_2" data-name="Layer 2"><g id="Titles"><path class="cls-1" d="M138.43,32.31A96.24,96.24,0,0,0,98.71,5.11q-1.52-.54-3.09-1t-3.39-1a85.86,85.86,0,0,0-45.46,0q-1.72.47-3.39,1t-3.09,1A96.24,96.24,0,0,0,.57,32.31a2.92,2.92,0,0,0,0,3.47A96.24,96.24,0,0,0,40.29,63q1.52.55,3.09,1t3.39,1A85.78,85.78,0,0,0,69.5,68.09,85.79,85.79,0,0,0,92.23,65q1.72-.47,3.39-1t3.09-1a96.24,96.24,0,0,0,39.72-27.2,2.92,2.92,0,0,0,0-3.47ZM4.72,34A97.19,97.19,0,0,1,37,11.57,58.18,58.18,0,0,0,32.57,34,58.18,58.18,0,0,0,37,56.51,97.55,97.55,0,0,1,4.72,34ZM69.5,63.26A81.89,81.89,0,0,1,42.42,58.6,51.07,51.07,0,0,1,36.33,34a51.06,51.06,0,0,1,6.1-24.57,81.07,81.07,0,0,1,54.15,0A51.07,51.07,0,0,1,102.67,34a51.07,51.07,0,0,1-6.1,24.57A82,82,0,0,1,69.5,63.26ZM102,56.53A58.18,58.18,0,0,0,106.43,34,58.19,58.19,0,0,0,102,11.58,97.55,97.55,0,0,1,134.28,34,97.17,97.17,0,0,1,102,56.53Z"/><ellipse class="cls-1" cx="69.5" cy="34.05" rx="6.51" ry="8.38"/></g></g></svg>