<svg xmlns="http://www.w3.org/2000/svg" viewBox="0 0 116.48 116.48"><defs><style>.cls-1{fill:#5199a3;}</style></defs><title>meds</title><g id="Layer_2" data-name="Layer 2"><g id="Titles"><path class="cls-1" d="M114.69,36.6H79.88V1.79A1.79,1.79,0,0,0,78.08,0H38.39A1.79,1.79,0,0,0,36.6,1.79V36.6H1.79A1.79,1.79,0,0,0,0,38.39V78.08a1.79,1.79,0,0,0,1.79,1.79H36.6v34.81a1.79,1.79,0,0,0,1.79,1.79H78.08a1.79,1.79,0,0,0,1.79-1.79V79.88h34.81a1.79,1.79,0,0,0,1.79-1.79V38.39A1.79,1.79,0,0,0,114.69,36.6Zm-1.79,39.69H78.08a1.79,1.79,0,0,0-1.79,1.79v34.81H40.19V78.08a1.79,1.79,0,0,0-1.79-1.79H3.59V40.19H38.39a1.79,1.79,0,0,0,1.79-1.79V3.59h36.1V38.39a1.79,1.79,0,0,0,1.79,1.79h34.81Z"/></g></g></svg>