<svg xmlns="http://www.w3.org/2000/svg" viewBox="0 0 116.05 98.72"><defs><style>.cls-1{fill:#5199a3;}</style></defs><title>Asset 6</title><g id="Layer_2" data-name="Layer 2"><g id="Titles"><path class="cls-1" d="M115.85,32.06c-.27-.5-6.63-12.22-17.07-13.53A19.83,19.83,0,0,0,78.56,30.59C75.33,38.56,79,47,81.9,53.8c1.31,3,1.35,6.52,1.39,10.22.07,6,.14,12.21,6,16.44A17.54,17.54,0,0,0,99.39,84a13,13,0,0,0,3.12-.37A11.89,11.89,0,0,0,110.43,77a1.68,1.68,0,0,0-3-1.48,8.52,8.52,0,0,1-5.71,4.83c-3.24.8-7.16-.17-10.49-2.59C86.77,74.5,86.71,69.62,86.65,64c0-3.86-.09-7.86-1.67-11.51-2.68-6.22-6-14-3.31-20.62,2.61-6.44,9.95-10.83,16.69-10,8.7,1.09,14.46,11.67,14.52,11.77a1.68,1.68,0,0,0,3-1.58Z"/><path class="cls-1" d="M98.56,28.61c-4-.71-7.5,1-9.94,4.68-3.17,4.84-.95,9.88.68,13.56A35.26,35.26,0,0,1,92.2,65a1.68,1.68,0,0,0,1.53,1.82h.15a1.68,1.68,0,0,0,1.67-1.54,38.45,38.45,0,0,0-3.18-19.82c-1.76-4-2.95-7.29-.94-10.36,1.7-2.6,3.9-3.68,6.54-3.21,3.95.7,8.3,4.88,10.11,9.45a7.71,7.71,0,0,0-3.69,1.8,8.26,8.26,0,0,0-2.46,6.41c0,7.13,5.07,9,7.76,9a1.68,1.68,0,0,0,0-3.36c-.74,0-4.41-.35-4.41-5.65a5.1,5.1,0,0,1,1.35-3.91,5.18,5.18,0,0,1,3.52-1.13A1.68,1.68,0,0,0,112,42.49C110.41,35.87,104.4,29.65,98.56,28.61Z"/><path class="cls-1" d="M40.59,20.13a1.67,1.67,0,0,0-1.73.1L17.42,34.9H1.68A1.68,1.68,0,0,0,0,36.58V63.79a1.68,1.68,0,0,0,1.68,1.68H17.45L38.85,80.12a1.68,1.68,0,0,0,2.63-1.39V21.62A1.68,1.68,0,0,0,40.59,20.13ZM3.36,38.26h12.9V62.11H3.36ZM38.12,75.55,19.62,62.89V37.47L38.12,24.8Z"/><path class="cls-1" d="M50.28,27.49a1.67,1.67,0,0,0,.42-.05l20.24-5.19a1.68,1.68,0,0,0,1-2.54l-6-9.27,18.49-7.2A1.68,1.68,0,0,0,83.23.11L62.82,8.06a1.68,1.68,0,0,0-.8,2.48l5.83,9-18,4.61a1.68,1.68,0,0,0,.41,3.31Z"/><path class="cls-1" d="M84.45,95.47,66,88.28l6-9.27a1.68,1.68,0,0,0-1-2.54L50.7,71.28a1.68,1.68,0,1,0-.83,3.26l18,4.61-5.83,9a1.68,1.68,0,0,0,.8,2.48l20.41,7.94a1.68,1.68,0,0,0,1.22-3.13Z"/><path class="cls-1" d="M50.28,51.81H68.92a1.68,1.68,0,1,0,0-3.36H50.28a1.68,1.68,0,0,0,0,3.36Z"/><path class="cls-1" d="M50,62.71l18.64,2.74.25,0a1.68,1.68,0,0,0,.24-3.34L50.53,59.39a1.66,1.66,0,0,0-1.91,1.42A1.68,1.68,0,0,0,50,62.71Z"/><path class="cls-1" d="M50.28,40.89l.25,0,18.64-2.74a1.68,1.68,0,1,0-.49-3.32L50,37.55a1.68,1.68,0,0,0,.24,3.34Z"/></g></g></svg>