<svg xmlns="http://www.w3.org/2000/svg" viewBox="0 0 181.47 137.42"><defs><style>.cls-1{fill:#5199a3;}</style></defs><title>therapy</title><g id="Layer_2" data-name="Layer 2"><g id="Titles"><path class="cls-1" d="M94.47,94.25a3.16,3.16,0,1,0,1.26,2.53A3.18,3.18,0,0,0,94.47,94.25Z"/><path class="cls-1" d="M18.11,48.83a13,13,0,1,0-13-13A13,13,0,0,0,18.11,48.83Zm0-21.66a8.69,8.69,0,1,1-8.69,8.69A8.7,8.7,0,0,1,18.11,27.16Z"/><path class="cls-1" d="M167.23,32.18A14.25,14.25,0,0,0,153,46.41V58.65L133.84,62l-2.52.49a12.12,12.12,0,0,0-9.22,11.79s0,0,0,.07,0,0,0,.07l.95,14.8L112.89,91a21,21,0,0,0-41.36,5V98.3l-10.09,1.78.66-10.33A12.53,12.53,0,0,0,47.18,77.47l-18.71,3.3V69.3A14.23,14.23,0,0,0,0,69.3v32.76A11.12,11.12,0,0,0,13.25,113h0l23.67-4.19,3.31,25.8a2.14,2.14,0,0,0,2.12,1.87H57.11a2.14,2.14,0,0,0,2.13-2l1.92-30,10.37-1.83v32.65a2.14,2.14,0,0,0,2.14,2.14h37.71a2.14,2.14,0,0,0,2.14-2.14V96c0-.25,0-.5,0-.75l9.86-1.74L125,118.93a2.14,2.14,0,0,0,2.13,2h14.74a2.14,2.14,0,0,0,2.12-1.87l3.82-29.9,24.5-4.33h0a11.08,11.08,0,0,0,9.18-10.94h0V46.41A14.25,14.25,0,0,0,167.23,32.18ZM55.1,132.16H44.24L41.14,108l-.54-4.24-.71-5.55a2.14,2.14,0,1,0-4.24.54l.74,5.75-23.88,4.22h-.08a6.74,6.74,0,0,1-1.32.13,6.84,6.84,0,0,1-6.83-6.83V69.3a10,10,0,0,1,19.92,0V83.15a2,2,0,0,0,0,.2,2,2,0,0,0,0,.34,2.13,2.13,0,0,0,2.47,1.73L48,81.67a8.42,8.42,0,0,1,1.61-.16,8.23,8.23,0,0,1,8.25,8.11l-.72,11.23-.28,4.39ZM109.24,96v37.18H75.8V96a16.72,16.72,0,0,1,33.43,0Zm62.31-15.36h0l-23.2,4.1.57-4.45a2.14,2.14,0,1,0-4.24-.54l-.74,5.77-.57,4.44L140,116.65H129.1l-1.54-23.92-.28-4.29-.91-14.22a7.83,7.83,0,0,1,5.87-7.59l22.9-4a2.09,2.09,0,0,0,1-.52,2.11,2.11,0,0,0,1.12-1.84V46.41a10,10,0,1,1,19.92,0V73.89A6.81,6.81,0,0,1,171.55,80.61Z"/><path class="cls-1" d="M163.35,25.94a13,13,0,1,0-13-13A13,13,0,0,0,163.35,25.94Zm0-21.66A8.69,8.69,0,1,1,154.66,13,8.7,8.7,0,0,1,163.35,4.27Z"/></g></g></svg>