<?xml version="1.0" encoding="utf-8"?>
<!-- Generator: Adobe Illustrator 21.1.0, SVG Export Plug-In . SVG Version: 6.00 Build 0)  -->
<svg version="1.1" id="Layer_1" xmlns="http://www.w3.org/2000/svg" xmlns:xlink="http://www.w3.org/1999/xlink" x="0px" y="0px"
	 viewBox="0 0 41.6 98.6" style="enable-background:new 0 0 41.6 98.6;" xml:space="preserve">
<style type="text/css">
	.st0{fill:#FFFFFF;}
</style>
<title>Asset 10</title>
<g>
	<g>
		<path class="st0" d="M6,15.5c1.4,0,2.8-0.5,3.8-1.4c1.5,6.1,7.7,9.8,13.8,8.3c4.1-1,7.3-4.2,8.3-8.3c2.6,2.1,6.4,1.7,8.4-0.9
			c0.8-1,1.3-2.3,1.3-3.7h-2.4c0,2-1.6,3.6-3.5,3.6c-1.7,0-3.2-1.2-3.6-2.8c0-0.2,0-0.4-0.1-0.5s0-0.2,0-0.2l0,0
			c-1-6.2-6.9-10.4-13.1-9.4C14.2,1,10.4,4.7,9.6,9.5l0,0c0,0.2,0,0.4-0.1,0.7l0,0c-0.3,2-2.2,3.3-4.1,3c-1.8-0.3-3-1.8-3-3.6H0
			C0,12.8,2.7,15.5,6,15.5z M11.9,10.5c0-0.1,0-0.2,0.1-0.4c0.7-4.9,5.2-8.4,10.1-7.7C26,3,29.1,6,29.7,9.9c0,0.3,0,0.5,0.1,0.8
			c0,0.2,0,0.4,0,0.7c0,5-4,9-9,9s-9-4-9-9l0,0C11.8,11.1,11.8,10.8,11.9,10.5L11.9,10.5z M35.1,42.4c4.1-4.1,4.1-10.8,0-14.9
			c0,0,0,0,0,0l-1.7,1.7c2.9,3,3.2,7.7,0.5,10.9l-7.1-16.5c-3.4,3.3-8.8,3.3-12.1,0L7.6,40.1c-2.6-3.2-2.4-8,0.6-10.9l-1.7-1.7
			c-4.1,4.1-4.1,10.8,0,14.9l0.2-0.2L0,57.6c11.5,11.5,30.1,11.5,41.6,0c0,0,0,0,0,0L35,42.3L35.1,42.4z M38.8,57
			c-10.2,9.1-25.7,9.1-35.9,0l12.9-29.8c3.2,1.6,7,1.6,10.1,0L38.8,57z M15.6,78.8h2.4V68h-2.4V78.8z M22.8,78.8h2.4V68h-2.4V78.8z"
			/>
	</g>
</g>
</svg>
