<svg xmlns="http://www.w3.org/2000/svg" viewBox="0 0 60.3 110.35"><defs><style>.cls-1{fill:#fff;}</style></defs><title>white_girl</title><g id="Layer_2" data-name="Layer 2"><g id="Graphics"><path class="cls-1" d="M8.5,21.7a8.92,8.92,0,0,0,3.88-.88,1.69,1.69,0,0,1,2.32.85,16.72,16.72,0,0,0,19.43,9.69,16.36,16.36,0,0,0,11.47-9.74,1.68,1.68,0,0,1,2.28-.85A9,9,0,0,0,58.49,18.5a8.29,8.29,0,0,0,1.6-2.94,1.71,1.71,0,0,0-1.62-2.23H58.4a1.7,1.7,0,0,0-1.64,1.28,5.28,5.28,0,0,1-10.19-.16,1.94,1.94,0,0,0-.1-.76c-.1-.25,0-.24,0-.35h0C45,4.67,36.48-1.21,27.46.21A16.25,16.25,0,0,0,13.8,13.34h0a4.78,4.78,0,0,1-.1.94h0a5.21,5.21,0,0,1-6,4.13,5.15,5.15,0,0,1-4.23-3.79,1.69,1.69,0,0,0-1.64-1.29H1.7a1.71,1.71,0,0,0-1.63,2.2A8.69,8.69,0,0,0,8.5,21.7Zm8.56-7a1.21,1.21,0,0,1,.07-.5A13,13,0,0,1,31.91,3.43,12.88,12.88,0,0,1,43.05,13.9,8.2,8.2,0,0,0,43.2,15v1a12.86,12.86,0,0,1-13.11,12.6A12.86,12.86,0,0,1,17,15.94h0a6.14,6.14,0,0,1,0-1.27ZM50.9,59.33a14.34,14.34,0,0,0,0-20.84h0l-1.25,1.2a1.71,1.71,0,0,0-.13,2.3,11.07,11.07,0,0,1,1.53,11.19,1.69,1.69,0,0,1-3.09,0L39.82,34.93a1.69,1.69,0,0,0-2.5-.7,12.92,12.92,0,0,1-14.46,0,1.69,1.69,0,0,0-2.5.7L12.14,53.18A1.69,1.69,0,0,1,9,53.2,11.1,11.1,0,0,1,10.6,42a1.71,1.71,0,0,0-.12-2.3h0A1.7,1.7,0,0,0,8,39.81,14.35,14.35,0,0,0,9.22,59.33l.26-.25L.26,79.51a1.7,1.7,0,0,0,.39,2,44.05,44.05,0,0,0,59.63-.83h0L50.73,59.14Zm5.32,20.44a40.53,40.53,0,0,1-51.29.83,1.69,1.69,0,0,1-.47-2L22,39.56a1.69,1.69,0,0,1,2.15-.88A16.61,16.61,0,0,0,37.46,38M24.1,110.35h.05a1.7,1.7,0,0,0,1.7-1.7V96.87a1.7,1.7,0,0,0-1.7-1.7H24.1a1.7,1.7,0,0,0-1.7,1.7v11.79A1.7,1.7,0,0,0,24.1,110.35Zm10.54,0h.05a1.7,1.7,0,0,0,1.7-1.7V96.87a1.7,1.7,0,0,0-1.7-1.7h-.05a1.7,1.7,0,0,0-1.7,1.7v11.79A1.7,1.7,0,0,0,34.65,110.35Z"/></g></g></svg>