<svg xmlns="http://www.w3.org/2000/svg" viewBox="0 0 43.64 113.07"><defs><style>.cls-1{fill:#fff;}</style></defs><title>Asset 14</title><g id="Layer_2" data-name="Layer 2"><g id="Graphics"><path class="cls-1" d="M7.53,14.27A14.31,14.31,0,1,0,8.59,8.92H1v3H7.76A14.21,14.21,0,0,0,7.53,14.27ZM21.8,3a11.29,11.29,0,0,1,10,5.94H11.87a11.29,11.29,0,0,1,9.94-6Zm-11,8.9H32.86a11.29,11.29,0,1,1-22.1,0Zm-4.89,22a20.06,20.06,0,0,0,0,28.38l0,0L8,60.2A17.13,17.13,0,0,1,8,36Zm31.86,0L35.66,36a17.13,17.13,0,0,1,0,24.2l2.09,2.09a20.06,20.06,0,0,0,0-28.38Zm-6.17-1.92-2.51-.85a10.25,10.25,0,0,1-14.48,0l-2.51.85L8.32,60.4H8.11v52.67H35.54V60.4h-.19ZM14.66,35A13.24,13.24,0,0,0,29,35l3.37,25.46H11.3Zm18,75.09h-9.3V79h-3v31H11.07V63.37H32.61Z"/></g></g></svg>